<svg width="14" height="15" viewBox="0 0 14 15" fill="none" xmlns="http://www.w3.org/2000/svg">
<g clip-path="url(#clip0_832_11883)">
<path d="M12.25 1.66667H10.5V0.5H9.33333V1.66667H4.66667V0.5H3.5V1.66667H1.75C1.28587 1.66667 0.840752 1.85104 0.512563 2.17923C0.184374 2.50742 0 2.95254 0 3.41667L0 14.5H14V3.41667C14 2.95254 13.8156 2.50742 13.4874 2.17923C13.1592 1.85104 12.7141 1.66667 12.25 1.66667ZM1.16667 3.41667C1.16667 3.26196 1.22812 3.11358 1.33752 3.00419C1.44692 2.89479 1.59529 2.83333 1.75 2.83333H12.25C12.4047 2.83333 12.5531 2.89479 12.6625 3.00419C12.7719 3.11358 12.8333 3.26196 12.8333 3.41667V5.16667H1.16667V3.41667ZM1.16667 13.3333V6.33333H12.8333V13.3333H1.16667Z" fill="#374957"/>
<path d="M9.91667 8.08325H8.75V9.24993H9.91667V8.08325Z" fill="#374957"/>
<path d="M7.58269 8.08325H6.41602V9.24993H7.58269V8.08325Z" fill="#374957"/>
<path d="M5.25065 8.08325H4.08398V9.24993H5.25065V8.08325Z" fill="#374957"/>
<path d="M9.91667 10.4167H8.75V11.5834H9.91667V10.4167Z" fill="#374957"/>
<path d="M7.58269 10.4167H6.41602V11.5834H7.58269V10.4167Z" fill="#374957"/>
<path d="M5.25065 10.4167H4.08398V11.5834H5.25065V10.4167Z" fill="#374957"/>
</g>
<defs>
<clipPath id="clip0_832_11883">
<rect width="14" height="14" fill="white" transform="translate(0 0.5)"/>
</clipPath>
</defs>
</svg>
