<svg width="14" height="14" viewBox="0 0 14 14" fill="none" xmlns="http://www.w3.org/2000/svg">
<g clip-path="url(#clip0_732_20716)">
<path d="M12.25 2.33333H10.787L8.98683 0H5.01258L3.213 2.33333H1.75C1.28587 2.33333 0.840752 2.51771 0.512563 2.8459C0.184374 3.17409 0 3.6192 0 4.08333L0 14H14V4.08333C14 3.6192 13.8156 3.17409 13.4874 2.8459C13.1592 2.51771 12.7141 2.33333 12.25 2.33333V2.33333ZM5.58658 1.16667H8.414L9.3135 2.33333H4.6865L5.58658 1.16667ZM12.8333 12.8333H1.16667V4.08333C1.16667 3.92862 1.22812 3.78025 1.33752 3.67085C1.44692 3.56146 1.59529 3.5 1.75 3.5H12.25C12.4047 3.5 12.5531 3.56146 12.6625 3.67085C12.7719 3.78025 12.8333 3.92862 12.8333 4.08333V12.8333Z" fill="#3385FF"/>
<path d="M7 4.66675C6.30777 4.66675 5.63108 4.87202 5.05551 5.2566C4.47993 5.64119 4.03133 6.18781 3.76642 6.82736C3.50152 7.4669 3.4322 8.17063 3.56725 8.84956C3.7023 9.5285 4.03564 10.1521 4.52513 10.6416C5.01461 11.1311 5.63825 11.4644 6.31719 11.5995C6.99612 11.7345 7.69985 11.6652 8.33939 11.4003C8.97894 11.1354 9.52556 10.6868 9.91015 10.1112C10.2947 9.53567 10.5 8.85898 10.5 8.16675C10.4991 7.23878 10.13 6.34907 9.47385 5.6929C8.81768 5.03672 7.92798 4.66767 7 4.66675V4.66675ZM7 10.5001C6.53851 10.5001 6.08739 10.3632 5.70367 10.1068C5.31996 9.85045 5.02089 9.48604 4.84428 9.05968C4.66768 8.63332 4.62147 8.16416 4.7115 7.71154C4.80153 7.25892 5.02376 6.84316 5.35009 6.51683C5.67641 6.19051 6.09217 5.96828 6.54479 5.87825C6.99741 5.78822 7.46657 5.83442 7.89293 6.01103C8.31929 6.18763 8.68371 6.4867 8.9401 6.87042C9.19649 7.25413 9.33334 7.70526 9.33334 8.16675C9.33334 8.78559 9.0875 9.37908 8.64992 9.81666C8.21233 10.2542 7.61884 10.5001 7 10.5001Z" fill="#3385FF"/>
</g>
<defs>
<clipPath id="clip0_732_20716">
<rect width="14" height="14" fill="white"/>
</clipPath>
</defs>
</svg>
