<svg width="40" height="40" viewBox="0 0 40 40" fill="none" xmlns="http://www.w3.org/2000/svg">
<g clip-path="url(#clip0_1152_11196)" filter="url(#filter0_d_1152_11196)">
<path d="M10.9895 32.8553C10.6044 32.8531 10.1938 32.8518 9.7543 32.8518C8.52781 32.8518 7.40492 33.3955 6.9518 34.7378C5.41 34.7378 4.16016 35.9877 4.16016 37.5295C4.16016 39.0712 5.41 40.321 6.9518 40.321H10.9894L10.9895 32.8553Z" fill="#89C627"/>
<path d="M37.0098 32.8553C37.3948 32.8531 37.8054 32.8518 38.2449 32.8518C39.4714 32.8518 40.5943 33.3955 41.0474 34.7378C42.5892 34.7378 43.8391 35.9877 43.8391 37.5295C43.8391 39.0712 42.5892 40.321 41.0474 40.321C40.258 40.321 38.0191 40.321 37.0098 40.321V32.8553H37.0098Z" fill="#89C627"/>
<path d="M38.5056 40.1868H19.9238V14.5232C19.9238 13.9446 20.3929 13.4756 20.9715 13.4756H37.4579C38.0365 13.4756 38.5055 13.9446 38.5055 14.5232L38.5056 40.1868Z" fill="#688B96"/>
<path d="M35.0917 21.1199H28.627V17.136H35.0917C35.3884 17.136 35.629 17.3765 35.629 17.6733V20.5827C35.6289 20.8793 35.3884 21.1199 35.0917 21.1199Z" fill="#97E4F9"/>
<path d="M35.0917 28.5093H28.627V24.5254H35.0917C35.3884 24.5254 35.629 24.7659 35.629 25.0627V27.9721C35.6289 28.2687 35.3884 28.5093 35.0917 28.5093Z" fill="#97E4F9"/>
<path d="M35.0917 35.8985H28.627V31.9146H35.0917C35.3884 31.9146 35.629 32.1551 35.629 32.4518V35.3613C35.6289 35.6579 35.3884 35.8985 35.0917 35.8985Z" fill="#97E4F9"/>
<path d="M37.458 13.4756H34.582C35.1606 13.4756 35.6297 13.9446 35.6297 14.5232V40.1868H38.5057V14.5232C38.5057 13.9446 38.0366 13.4756 37.458 13.4756Z" fill="#557981"/>
<path d="M29.2907 40.1867H10.5566V4.07085C10.5566 3.49226 11.0257 3.02319 11.6043 3.02319H28.243C28.8216 3.02319 29.2907 3.49226 29.2907 4.07085V40.1867Z" fill="#DAEAEF"/>
<path d="M28.2428 3.02319H25.3711C25.9497 3.02319 26.4187 3.49226 26.4187 4.07085V40.1867H29.2905V4.07085C29.2905 3.49226 28.8214 3.02319 28.2428 3.02319Z" fill="#C9E2E7"/>
<path d="M43.1653 39.321H4.83469C4.37367 39.321 4 39.6947 4 40.1557V42.1422C4 42.6032 4.37367 42.9769 4.83469 42.9769H43.1653C43.6263 42.9769 44 42.6032 44 42.1422V40.1557C44 39.6947 43.6263 39.321 43.1653 39.321Z" fill="#0E80AC"/>
<path d="M22.2596 31.4924H17.5223C17.3288 31.4924 17.1719 31.6493 17.1719 31.8428V39.321H22.61V31.8428C22.61 31.6493 22.4531 31.4924 22.2596 31.4924Z" fill="#557981"/>
<path d="M20.8999 8.8019H18.8817C18.6882 8.8019 18.5312 8.64503 18.5312 8.45144V6.43323C18.5312 6.23972 18.6881 6.08276 18.8817 6.08276H20.8999C21.0934 6.08276 21.2504 6.23964 21.2504 6.43323V8.45144C21.2503 8.64503 21.0934 8.8019 20.8999 8.8019Z" fill="#97E4F9"/>
<path d="M26.0718 8.8019H24.0536C23.8601 8.8019 23.7031 8.64503 23.7031 8.45144V6.43323C23.7031 6.23972 23.86 6.08276 24.0536 6.08276H26.0718C26.2653 6.08276 26.4223 6.23964 26.4223 6.43323V8.45144C26.4223 8.64503 26.2654 8.8019 26.0718 8.8019Z" fill="#97E4F9"/>
<path d="M20.8999 15.1542H18.8817C18.6882 15.1542 18.5312 14.9973 18.5312 14.8037V12.7855C18.5312 12.592 18.6881 12.4351 18.8817 12.4351H20.8999C21.0934 12.4351 21.2504 12.5919 21.2504 12.7855V14.8037C21.2503 14.9973 21.0934 15.1542 20.8999 15.1542Z" fill="#97E4F9"/>
<path d="M26.0718 15.1542H24.0536C23.8601 15.1542 23.7031 14.9973 23.7031 14.8037V12.7855C23.7031 12.592 23.86 12.4351 24.0536 12.4351H26.0718C26.2653 12.4351 26.4223 12.5919 26.4223 12.7855V14.8037C26.4223 14.9973 26.2654 15.1542 26.0718 15.1542Z" fill="#97E4F9"/>
<path d="M20.8999 21.5067H18.8817C18.6882 21.5067 18.5312 21.3499 18.5312 21.1563V19.1381C18.5312 18.9446 18.6881 18.7876 18.8817 18.7876H20.8999C21.0934 18.7876 21.2504 18.9445 21.2504 19.1381V21.1563C21.2503 21.3499 21.0934 21.5067 20.8999 21.5067Z" fill="#97E4F9"/>
<path d="M26.0718 21.5067H24.0536C23.8601 21.5067 23.7031 21.3499 23.7031 21.1563V19.1381C23.7031 18.9446 23.86 18.7876 24.0536 18.7876H26.0718C26.2653 18.7876 26.4223 18.9445 26.4223 19.1381V21.1563C26.4223 21.3499 26.2654 21.5067 26.0718 21.5067Z" fill="#97E4F9"/>
<path d="M20.8999 27.8593H18.8817C18.6882 27.8593 18.5312 27.7024 18.5312 27.5088V25.4906C18.5312 25.2971 18.6881 25.1401 18.8817 25.1401H20.8999C21.0934 25.1401 21.2504 25.297 21.2504 25.4906V27.5088C21.2503 27.7024 21.0934 27.8593 20.8999 27.8593Z" fill="#97E4F9"/>
<path d="M26.0718 27.8593H24.0536C23.8601 27.8593 23.7031 27.7024 23.7031 27.5088V25.4906C23.7031 25.2971 23.86 25.1401 24.0536 25.1401H26.0718C26.2653 25.1401 26.4223 25.297 26.4223 25.4906V27.5088C26.4223 27.7024 26.2654 27.8593 26.0718 27.8593Z" fill="#97E4F9"/>
<path d="M15.728 8.8019H13.7098C13.5163 8.8019 13.3594 8.64503 13.3594 8.45144V6.43323C13.3594 6.23972 13.5163 6.08276 13.7098 6.08276H15.728C15.9216 6.08276 16.0785 6.23964 16.0785 6.43323V8.45144C16.0785 8.64503 15.9216 8.8019 15.728 8.8019Z" fill="#97E4F9"/>
<path d="M15.728 15.1542H13.7098C13.5163 15.1542 13.3594 14.9973 13.3594 14.8037V12.7855C13.3594 12.592 13.5163 12.4351 13.7098 12.4351H15.728C15.9216 12.4351 16.0785 12.5919 16.0785 12.7855V14.8037C16.0785 14.9973 15.9216 15.1542 15.728 15.1542Z" fill="#97E4F9"/>
<path d="M15.728 21.5067H13.7098C13.5163 21.5067 13.3594 21.3499 13.3594 21.1563V19.1381C13.3594 18.9446 13.5163 18.7876 13.7098 18.7876H15.728C15.9216 18.7876 16.0785 18.9445 16.0785 19.1381V21.1563C16.0785 21.3499 15.9216 21.5067 15.728 21.5067Z" fill="#97E4F9"/>
<path d="M15.728 27.8593H13.7098C13.5163 27.8593 13.3594 27.7024 13.3594 27.5088V25.4906C13.3594 25.2971 13.5163 25.1401 13.7098 25.1401H15.728C15.9216 25.1401 16.0785 25.297 16.0785 25.4906V27.5088C16.0785 27.7024 15.9216 27.8593 15.728 27.8593Z" fill="#97E4F9"/>
</g>
<defs>
<filter id="filter0_d_1152_11196" x="0" y="0" width="48" height="48" filterUnits="userSpaceOnUse" color-interpolation-filters="sRGB">
<feFlood flood-opacity="0" result="BackgroundImageFix"/>
<feColorMatrix in="SourceAlpha" type="matrix" values="0 0 0 0 0 0 0 0 0 0 0 0 0 0 0 0 0 0 127 0" result="hardAlpha"/>
<feOffset dy="1"/>
<feGaussianBlur stdDeviation="2"/>
<feComposite in2="hardAlpha" operator="out"/>
<feColorMatrix type="matrix" values="0 0 0 0 0.436192 0 0 0 0 0.641846 0 0 0 0 0.576037 0 0 0 0.6 0"/>
<feBlend mode="normal" in2="BackgroundImageFix" result="effect1_dropShadow_1152_11196"/>
<feBlend mode="normal" in="SourceGraphic" in2="effect1_dropShadow_1152_11196" result="shape"/>
</filter>
<clipPath id="clip0_1152_11196">
<rect width="40" height="40" fill="white" transform="translate(4 3)"/>
</clipPath>
</defs>
</svg>
