<svg width="30" height="30" viewBox="0 0 30 30" fill="none" xmlns="http://www.w3.org/2000/svg">
<g clip-path="url(#clip0_790_21383)">
<path d="M7.05469 8.67993H11.4542V10.5271H7.05469V8.67993Z" fill="#3385FF"/>
<path d="M7.05469 12.8774H11.4542V14.7246H7.05469V12.8774Z" fill="#3385FF"/>
<path d="M7.05469 17.0825H11.4542V18.9297H7.05469V17.0825Z" fill="#3385FF"/>
<path d="M7.05469 21.2798H11.4542V23.127H7.05469V21.2798Z" fill="#3385FF"/>
<path d="M15.951 25.5844V10.491L25.5965 10.4798V20.6619H27.4427V9.55511C27.4427 9.05123 27.0217 8.63148 26.5185 8.63148L15.0268 8.6449C14.5175 8.64551 14.1048 9.0588 14.1048 9.56853V25.5844H4.40269V7.30773L14.1048 4.6977V6.79462H15.951V3.49296C15.951 2.89542 15.3657 2.4457 14.7882 2.60102L3.23992 5.70766C2.83678 5.81616 2.55653 6.18188 2.55653 6.5996V25.5844H0.599609V27.4316H29.3996V25.5844H15.951Z" fill="#3385FF"/>
<path d="M25.5957 22.3208H27.4419V24.0415H25.5957V22.3208Z" fill="#3385FF"/>
<path d="M18.5449 12.8772H22.9444V14.7244H18.5449V12.8772Z" fill="#3385FF"/>
<path d="M18.5449 17.0752H22.9444V18.9224H18.5449V17.0752Z" fill="#3385FF"/>
<path d="M18.5449 21.2732H22.9444V23.1204H18.5449V21.2732Z" fill="#3385FF"/>
</g>
<defs>
<clipPath id="clip0_790_21383">
<rect width="28.8" height="28.8" fill="white" transform="translate(0.599609 0.600098)"/>
</clipPath>
</defs>
</svg>
