<svg width="36" height="36" viewBox="0 0 36 30" fill="none" xmlns="http://www.w3.org/2000/svg">
<g filter="url(#filter0_d_251_30108)">
<path fill-rule="evenodd" clip-rule="evenodd" d="M18 0.666992C15.0545 0.666992 12.6667 3.05481 12.6667 6.00033H8.76084C6.32074 6.00033 4.3448 8.10842 4.70919 10.5725L6.68091 23.9058C6.97686 25.9071 8.73238 27.3337 10.7326 27.3337H25.2672C27.2675 27.3337 29.023 25.9071 29.319 23.9058L31.2907 10.5725C31.6551 8.10842 29.6791 6.00033 27.239 6.00033H23.3334C23.3334 3.05481 20.9455 0.666992 18 0.666992ZM20.6667 6.00033C20.6667 4.52757 19.4728 3.33366 18 3.33366C16.5272 3.33366 15.3334 4.52757 15.3334 6.00033H20.6667ZM23.0035 13.789C23.4884 14.3431 23.4322 15.1855 22.878 15.6705L17.5447 20.3371C17.0164 20.7994 16.2203 20.7729 15.7239 20.2765L13.0572 17.6098C12.5365 17.0891 12.5365 16.2449 13.0572 15.7242C13.5779 15.2035 14.4221 15.2035 14.9428 15.7242L16.7275 17.5089L21.122 13.6635C21.6762 13.1786 22.5186 13.2349 23.0035 13.789Z" fill="white"/>
</g>
<defs>
<filter id="filter0_d_251_30108" x="0.66571" y="0.666992" width="34.6685" height="34.667" filterUnits="userSpaceOnUse" color-interpolation-filters="sRGB">
<feFlood flood-opacity="0" result="BackgroundImageFix"/>
<feColorMatrix in="SourceAlpha" type="matrix" values="0 0 0 0 0 0 0 0 0 0 0 0 0 0 0 0 0 0 127 0" result="hardAlpha"/>
<feOffset dy="4"/>
<feGaussianBlur stdDeviation="2"/>
<feComposite in2="hardAlpha" operator="out"/>
<feColorMatrix type="matrix" values="0 0 0 0 0 0 0 0 0 0 0 0 0 0 0 0 0 0 0.25 0"/>
<feBlend mode="normal" in2="BackgroundImageFix" result="effect1_dropShadow_251_30108"/>
<feBlend mode="normal" in="SourceGraphic" in2="effect1_dropShadow_251_30108" result="shape"/>
</filter>
</defs>
</svg>
