<svg width="16" height="18" viewBox="0 0 16 18" fill="none" xmlns="http://www.w3.org/2000/svg">
<path fill-rule="evenodd" clip-rule="evenodd" d="M7.99935 0.25C11.9089 0.25 15.0827 3.42375 15.0827 7.33333C15.0827 9.36917 14.0669 11.4646 12.7914 13.2242C11.0106 15.6817 8.78351 17.4733 8.78351 17.4733V17.4738C8.32559 17.8421 7.6731 17.8421 7.21519 17.4738V17.4733C7.21519 17.4733 4.9881 15.6817 3.20726 13.2242C1.93185 11.4646 0.916016 9.36917 0.916016 7.33333C0.916016 3.42375 4.08977 0.25 7.99935 0.25ZM7.99935 4.41667C9.60893 4.41667 10.916 5.72375 10.916 7.33333C10.916 8.94292 9.60893 10.25 7.99935 10.25C6.38977 10.25 5.08268 8.94292 5.08268 7.33333C5.08268 5.72375 6.38977 4.41667 7.99935 4.41667Z" fill="#005AE0"/>
</svg>
