<svg width="20" height="20" viewBox="0 0 20 20" fill="none" xmlns="http://www.w3.org/2000/svg">
<g clip-path="url(#clip0_1152_11264)">
<path d="M3.38996 15H16.4366C16.8382 15 17.2338 14.9033 17.59 14.7181C17.9463 14.5328 18.2527 14.2645 18.4833 13.9358C18.7139 13.6071 18.8619 13.2277 18.9149 12.8297C18.9678 12.4316 18.9241 12.0267 18.7875 11.6492L16.4108 5.07833C16.0049 3.61809 15.1319 2.33099 13.9252 1.41389C12.7186 0.496791 11.2447 0.000176732 9.72913 8.47759e-10V8.47759e-10C8.1514 -2.46602e-05 6.62083 0.53799 5.39013 1.52521C4.15944 2.51244 3.3022 3.88984 2.95996 5.43L1.00162 11.7633C0.886325 12.1372 0.860404 12.533 0.925949 12.9188C0.991493 13.3045 1.14667 13.6695 1.379 13.9844C1.61133 14.2992 1.91432 14.5551 2.26359 14.7315C2.61287 14.9079 2.99867 14.9999 3.38996 15Z" fill="#0041A3"/>
<path d="M5.91602 16.6666C6.10728 17.6085 6.61829 18.4554 7.36247 19.0636C8.10664 19.6719 9.03822 20.0042 9.99935 20.0042C10.9605 20.0042 11.8921 19.6719 12.6362 19.0636C13.3804 18.4554 13.8914 17.6085 14.0827 16.6666H5.91602Z" fill="#0041A3"/>
</g>
<defs>
<clipPath id="clip0_1152_11264">
<rect width="20" height="20" fill="white"/>
</clipPath>
</defs>
</svg>
