<svg width="44" height="46" viewBox="0 0 44 46" fill="none" xmlns="http://www.w3.org/2000/svg">
<path d="M40.9 2.52585V43.4741C40.9 44.6436 39.9519 45.5917 38.7824 45.5917H5.21765C4.04811 45.5917 3.10001 44.6436 3.10001 43.4741V8.90701H9.48823C10.6578 8.90701 11.6059 7.95891 11.6059 6.78936V0.408203H38.7824C39.9519 0.408203 40.9 1.35631 40.9 2.52585Z" fill="#E9EDF4"/>
<path d="M3.10001 8.90701H9.48823C10.6578 8.90701 11.6059 7.95891 11.6059 6.78936V0.408203L3.10001 8.90701Z" fill="#D2DBEA"/>
<path d="M43.1764 26.6616V36.4875C43.1764 37.657 42.2283 38.6051 41.0588 38.6051H2.94113C1.77159 38.6051 0.823486 37.657 0.823486 36.4875V26.6616C0.823486 25.492 1.77159 24.5439 2.94113 24.5439H41.0588C42.2283 24.5439 43.1764 25.492 43.1764 26.6616Z" fill="#F14F4A"/>
<path d="M35.0819 14.8802C35.0819 15.3868 34.678 15.7907 34.1714 15.7907H9.82856C9.32881 15.7907 8.91809 15.3868 8.91809 14.8802C8.91809 14.3736 9.32881 13.9697 9.82856 13.9697H34.1714C34.678 13.9697 35.0819 14.3736 35.0819 14.8802Z" fill="#D2DBEA"/>
<path d="M35.0819 19.5462C35.0819 20.0528 34.678 20.4567 34.1714 20.4567H9.82856C9.32881 20.4567 8.91809 20.0528 8.91809 19.5462C8.91809 19.0396 9.32881 18.6357 9.82856 18.6357H34.1714C34.678 18.6357 35.0819 19.0396 35.0819 19.5462Z" fill="#D2DBEA"/>
<path d="M13.0199 34.9339C12.9337 34.8481 12.891 34.7422 12.891 34.6164V28.5468C12.891 28.4214 12.9337 28.3138 13.0199 28.2246C13.1054 28.1353 13.2115 28.0908 13.337 28.0908H15.598C16.226 28.0908 16.7389 28.1966 17.1352 28.4079C17.5323 28.6195 17.8163 28.8908 17.9886 29.2213C18.1603 29.5519 18.2465 29.9089 18.2465 30.2922C18.2465 30.6758 18.1603 31.0329 17.9886 31.3635C17.8163 31.6943 17.5323 31.9652 17.1352 32.1769C16.7389 32.3885 16.226 32.494 15.598 32.494H13.7933V34.6164C13.7933 34.7422 13.7485 34.8481 13.6596 34.9339C13.57 35.0197 13.4625 35.0628 13.337 35.0628C13.2115 35.0628 13.1054 35.0197 13.0199 34.9339ZM15.5091 31.6413C16.1833 31.6413 16.6575 31.5124 16.9319 31.2545C17.2062 30.9964 17.3434 30.6758 17.3434 30.2922C17.3434 29.9089 17.2062 29.5881 16.9319 29.3303C16.6575 29.0724 16.1833 28.9435 15.5091 28.9435H13.7933V31.6413H15.5091Z" fill="white"/>
<path d="M13.337 35.239C13.166 35.239 13.013 35.1766 12.8951 35.0584C12.7752 34.9388 12.7145 34.7902 12.7145 34.6162V28.5465C12.7145 28.3739 12.7745 28.2243 12.893 28.1016C13.0102 27.9792 13.164 27.9141 13.337 27.9141H15.598C16.2529 27.9141 16.7975 28.0278 17.218 28.2518C17.6447 28.4793 17.9562 28.7778 18.1451 29.1394C18.3292 29.4944 18.4229 29.8821 18.4229 30.2919C18.4229 30.7017 18.3292 31.0898 18.1451 31.4445C17.9569 31.8061 17.6447 32.1049 17.218 32.3324C16.7981 32.5564 16.2536 32.6702 15.598 32.6702H13.9698V34.6162C13.9698 34.7885 13.905 34.9422 13.7823 35.0604C13.6582 35.179 13.5086 35.239 13.337 35.239ZM13.337 28.267C13.2591 28.267 13.1991 28.2922 13.1474 28.3463C13.093 28.4028 13.0674 28.4666 13.0674 28.5465V34.6162C13.0674 34.6951 13.0916 34.7564 13.1447 34.8085C13.2508 34.9146 13.4245 34.9143 13.5376 34.8061C13.5913 34.754 13.6169 34.6937 13.6169 34.6162V32.3172H15.598C16.195 32.3172 16.6837 32.2176 17.0518 32.0208C17.4151 31.8274 17.6771 31.5789 17.8322 31.2815C17.99 30.9778 18.07 30.6449 18.07 30.2919C18.07 29.9393 17.99 29.6064 17.8322 29.3024C17.6771 29.0053 17.4144 28.7564 17.0525 28.5634C16.683 28.3666 16.1943 28.267 15.598 28.267H13.337ZM15.5091 31.8174H13.6169V28.7668H15.5091C16.2363 28.7668 16.7416 28.9088 17.0525 29.2014C17.3627 29.4926 17.5199 29.8597 17.5199 30.2919C17.5199 30.7241 17.3627 31.0912 17.0525 31.3828C16.7416 31.6754 16.2363 31.8174 15.5091 31.8174ZM13.9698 31.4645H15.5091C16.1336 31.4645 16.572 31.3504 16.8112 31.1257C17.0504 30.9003 17.1669 30.6276 17.1669 30.2919C17.1669 29.9562 17.0504 29.6836 16.8112 29.4585C16.572 29.2338 16.1336 29.1197 15.5091 29.1197H13.9698V31.4645Z" fill="white"/>
<path d="M19.6844 34.8842C19.5983 34.7984 19.5555 34.6926 19.5555 34.5668V28.5468C19.5555 28.4214 19.5983 28.3138 19.6844 28.2246C19.7699 28.1353 19.8761 28.0908 20.0015 28.0908H21.9951C22.7486 28.0908 23.3883 28.2576 23.9142 28.5916C24.4395 28.9256 24.8345 29.3568 25.0992 29.8859C25.3632 30.4149 25.4956 30.9702 25.4956 31.552C25.4956 32.1338 25.3632 32.6891 25.0992 33.2181C24.8345 33.7472 24.4395 34.1784 23.9142 34.5124C23.3883 34.8463 22.7486 35.0132 21.9951 35.0132H20.0015C19.8761 35.0132 19.7699 34.9701 19.6844 34.8842ZM21.8862 34.1701C22.428 34.1701 22.9037 34.0595 23.3138 33.8378C23.724 33.6166 24.0411 33.3091 24.2658 32.9155C24.4905 32.5222 24.6036 32.0676 24.6036 31.552C24.6036 31.0364 24.4905 30.5817 24.2658 30.1881C24.0411 29.7949 23.724 29.4874 23.3138 29.2658C22.9037 29.0445 22.428 28.9335 21.8862 28.9335H20.4579V34.1701H21.8862Z" fill="white"/>
<path d="M21.9951 35.1893H20.0015C19.8306 35.1893 19.6775 35.127 19.5597 35.0087C19.4397 34.8891 19.3791 34.7406 19.3791 34.5665V28.5465C19.3791 28.3739 19.439 28.2243 19.5576 28.1016C19.6748 27.9792 19.8285 27.9141 20.0015 27.9141H21.9951C22.7796 27.9141 23.4565 28.0919 24.0087 28.4424C24.5594 28.7923 24.9792 29.2514 25.257 29.8066C25.5321 30.3585 25.672 30.9454 25.672 31.5517C25.672 32.158 25.5321 32.7449 25.257 33.2968C24.9792 33.852 24.5594 34.3111 24.0087 34.661C23.4565 35.0115 22.7796 35.1893 21.9951 35.1893ZM20.0015 28.267C19.9236 28.267 19.8637 28.2922 19.812 28.3463C19.7575 28.4028 19.732 28.4666 19.732 28.5465V34.5665C19.732 34.6455 19.7561 34.7065 19.8092 34.7588C19.8616 34.8112 19.9229 34.8364 20.0015 34.8364H21.9951C22.7113 34.8364 23.3248 34.6772 23.8198 34.3632C24.3154 34.0481 24.6925 33.6363 24.9413 33.1389C25.1922 32.6367 25.3191 32.1025 25.3191 31.5517C25.3191 31.0009 25.1922 30.4667 24.9413 29.9645C24.6925 29.4671 24.3154 29.0553 23.8198 28.7402C23.3248 28.4262 22.7113 28.267 21.9951 28.267H20.0015ZM21.8862 34.3463H20.2814V28.7568H21.8862C22.4542 28.7568 22.9629 28.8757 23.3979 29.1101C23.8349 29.3465 24.1789 29.6798 24.4188 30.1003C24.6587 30.5198 24.78 31.0082 24.78 31.5517C24.78 32.0952 24.6587 32.5836 24.4188 33.0028C24.1789 33.4236 23.8349 33.7569 23.3979 33.993C22.9636 34.2274 22.4549 34.3463 21.8862 34.3463ZM20.6343 33.9933H21.8862C22.3956 33.9933 22.8478 33.8886 23.2297 33.6824C23.6081 33.4781 23.9053 33.1906 24.1127 32.8277C24.3209 32.4623 24.4271 32.0332 24.4271 31.5517C24.4271 31.0702 24.3209 30.6411 24.1127 30.2754C23.9053 29.9128 23.6081 29.6253 23.2297 29.4206C22.8471 29.2145 22.3949 29.1097 21.8862 29.1097H20.6343V33.9933Z" fill="white"/>
<path d="M27.1328 34.9339C27.0466 34.8481 27.0038 34.7422 27.0038 34.6164V28.5468C27.0038 28.4214 27.0466 28.3138 27.1328 28.2246C27.2182 28.1353 27.3244 28.0908 27.4498 28.0908H31.3081C31.4266 28.0908 31.5273 28.1322 31.61 28.2146C31.6927 28.2973 31.7341 28.3983 31.7341 28.5172C31.7341 28.6361 31.6927 28.7354 31.61 28.8146C31.5273 28.8939 31.4266 28.9335 31.3081 28.9335H27.9062V31.1253H30.9606C31.0799 31.1253 31.1805 31.167 31.2633 31.2494C31.346 31.3321 31.3873 31.4327 31.3873 31.552C31.3873 31.6709 31.346 31.7702 31.2633 31.8494C31.1805 31.9287 31.0799 31.9683 30.9606 31.9683H27.9062V34.6164C27.9062 34.7422 27.8614 34.8481 27.7725 34.9339C27.6828 35.0197 27.5753 35.0628 27.4498 35.0628C27.3244 35.0628 27.2182 35.0197 27.1328 34.9339Z" fill="white"/>
<path d="M27.4498 35.239C27.2789 35.239 27.1258 35.1766 27.008 35.0584C26.888 34.9388 26.8274 34.7902 26.8274 34.6162V28.5465C26.8274 28.3739 26.8873 28.2243 27.0059 28.1016C27.1231 27.9792 27.2768 27.9141 27.4498 27.9141H31.3081C31.4742 27.9141 31.6176 27.973 31.7348 28.0892C31.8499 28.2046 31.9105 28.3521 31.9105 28.5169C31.9105 28.683 31.8485 28.8298 31.732 28.9419C31.6155 29.0532 31.4728 29.1097 31.3081 29.1097H28.0826V30.9485H30.9606C31.1275 30.9485 31.2708 31.0075 31.388 31.124C31.5045 31.2408 31.5638 31.3849 31.5638 31.5517C31.5638 31.7178 31.5018 31.8647 31.3853 31.9767C31.2688 32.088 31.1261 32.1445 30.9606 32.1445H28.0826V34.6162C28.0826 34.7885 28.0178 34.9422 27.8951 35.0604C27.7711 35.179 27.6215 35.239 27.4498 35.239ZM27.4498 28.267C27.3719 28.267 27.312 28.2922 27.2603 28.3463C27.2058 28.4028 27.1803 28.4666 27.1803 28.5465V34.6162C27.1803 34.6951 27.2044 34.7564 27.2575 34.8085C27.3637 34.9146 27.5374 34.9143 27.6504 34.8061C27.7042 34.754 27.7297 34.6937 27.7297 34.6162V31.7916H30.9606C31.0344 31.7916 31.0916 31.7695 31.1412 31.7216C31.1888 31.6761 31.2109 31.622 31.2109 31.5517C31.2109 31.4797 31.1881 31.4231 31.1385 31.3739C31.0889 31.3246 31.0323 31.3015 30.9606 31.3015H27.7297V28.7568H31.3081C31.3811 28.7568 31.4383 28.7347 31.488 28.6868C31.5355 28.6413 31.5576 28.5872 31.5576 28.5169C31.5576 28.4449 31.5349 28.3883 31.4852 28.339C31.4356 28.2901 31.3798 28.267 31.3081 28.267H27.4498Z" fill="white"/>
</svg>
