<svg width="14" height="14" viewBox="0 0 14 14" fill="none" xmlns="http://www.w3.org/2000/svg">
<g clip-path="url(#clip0_916_24885)">
<path d="M10.2744 7.49467L13.9289 11.1493L12.0792 12.999C11.7568 13.3201 11.3739 13.5739 10.9526 13.7457C10.5313 13.9175 10.0801 14.004 9.62511 14C5.39711 14 0.000113809 8.603 0.000113809 4.375C-0.00358646 3.91999 0.0829773 3.46876 0.254797 3.04742C0.426616 2.62609 0.680281 2.243 1.00111 1.92033L2.85086 0.0711667L6.50545 3.72575L4.0992 6.132C4.81455 7.832 6.16511 9.1857 7.86345 9.905L10.2744 7.49467ZM12.8334 5.83333H14.0001C13.9984 4.28676 13.3833 2.80401 12.2897 1.71042C11.1961 0.616825 9.71336 0.00169843 8.16678 0V1.16667C9.40403 1.16806 10.5902 1.66017 11.4651 2.53504C12.3399 3.40991 12.8321 4.59608 12.8334 5.83333ZM10.5001 5.83333H11.6668C11.6659 4.90536 11.2968 4.01566 10.6406 3.35948C9.98445 2.70331 9.09475 2.33426 8.16678 2.33333V3.5C8.78562 3.5 9.37911 3.74583 9.8167 4.18342C10.2543 4.621 10.5001 5.2145 10.5001 5.83333Z" fill="#798174"/>
</g>
<defs>
<clipPath id="clip0_916_24885">
<rect width="14" height="14" fill="white"/>
</clipPath>
</defs>
</svg>
