<svg width="76" height="71" viewBox="0 0 76 71" fill="none" xmlns="http://www.w3.org/2000/svg">
<path d="M40.4275 13.4902C28.2925 13.4902 18.4175 23.3627 18.4175 35.5002C18.4175 47.6377 28.29 57.5102 40.4275 57.5102C52.565 57.5102 62.44 47.6377 62.44 35.5002C62.44 23.3627 52.5625 13.4902 40.4275 13.4902ZM48.3275 41.5952C47.8825 42.1677 47.2175 42.4702 46.5425 42.4702C46.065 42.4702 45.58 42.3177 45.17 42.0027L39.05 37.2827C38.4975 36.8577 38.1725 36.1977 38.1725 35.5002V26.2027C38.1725 24.9602 39.18 23.9527 40.4225 23.9527C41.665 23.9527 42.6725 24.9602 42.6725 26.2027V34.3927L47.9175 38.4377C48.9025 39.1977 49.0875 40.6102 48.3275 41.5952Z" fill="#989E94"/>
<path d="M40.4275 0.677734C23.5775 0.677734 9.31001 12.9877 6.26001 29.0727L4.76501 27.1852C3.99251 26.2152 2.58251 26.0477 1.60501 26.8202C0.630008 27.5927 0.467507 29.0077 1.24001 29.9827L6.13501 36.1627C6.58001 36.7227 7.23501 37.0152 7.90001 37.0152C8.38751 37.0152 8.88251 36.8577 9.29501 36.5302L15.475 31.6352C16.45 30.8627 16.6125 29.4477 15.84 28.4727C15.07 27.5027 13.6575 27.3352 12.68 28.1077L10.72 29.6602C13.4725 15.7752 25.8425 5.18273 40.43 5.18273C57.1475 5.17773 70.75 18.7802 70.75 35.5002C70.75 52.2202 57.15 65.8227 40.4275 65.8227C29.205 65.8227 18.955 59.6727 13.68 49.7752C13.0975 48.6802 11.7375 48.2627 10.6375 48.8477C9.54001 49.4327 9.12501 50.7952 9.71001 51.8927C15.77 63.2627 27.54 70.3252 40.4275 70.3252C59.63 70.3252 75.2525 54.7027 75.2525 35.5027C75.2525 16.3027 59.6275 0.677734 40.4275 0.677734Z" fill="#989E94"/>
</svg>
