<svg width="17" height="16" viewBox="0 0 17 16" fill="none" xmlns="http://www.w3.org/2000/svg">
<g clip-path="url(#clip0_1101_22569)">
<path d="M9.18667 1.24665L1.86 0.13332C1.52 0.079987 1.17333 0.17332 0.913333 0.39332C0.653333 0.619987 0.5 0.946654 0.5 1.28665V15.3333C0.5 15.7 0.8 16 1.16667 16H3.33333V12.5C3.33333 11.8533 3.85333 11.3333 4.5 11.3333H6.16667C6.81333 11.3333 7.33333 11.8533 7.33333 12.5V16H10.1667V2.39999C10.1667 1.82665 9.75333 1.33999 9.18667 1.24665ZM4.16667 9.83332H3.16667C2.89067 9.83332 2.66667 9.60932 2.66667 9.33332C2.66667 9.05732 2.89067 8.83332 3.16667 8.83332H4.16667C4.44267 8.83332 4.66667 9.05732 4.66667 9.33332C4.66667 9.60932 4.44267 9.83332 4.16667 9.83332ZM4.16667 7.83332H3.16667C2.89067 7.83332 2.66667 7.60932 2.66667 7.33332C2.66667 7.05732 2.89067 6.83332 3.16667 6.83332H4.16667C4.44267 6.83332 4.66667 7.05732 4.66667 7.33332C4.66667 7.60932 4.44267 7.83332 4.16667 7.83332ZM4.16667 5.83332H3.16667C2.89067 5.83332 2.66667 5.60932 2.66667 5.33332C2.66667 5.05732 2.89067 4.83332 3.16667 4.83332H4.16667C4.44267 4.83332 4.66667 5.05732 4.66667 5.33332C4.66667 5.60932 4.44267 5.83332 4.16667 5.83332ZM4.16667 3.83332H3.16667C2.89067 3.83332 2.66667 3.60932 2.66667 3.33332C2.66667 3.05732 2.89067 2.83332 3.16667 2.83332H4.16667C4.44267 2.83332 4.66667 3.05732 4.66667 3.33332C4.66667 3.60932 4.44267 3.83332 4.16667 3.83332ZM7.5 9.83332H6.5C6.224 9.83332 6 9.60932 6 9.33332C6 9.05732 6.224 8.83332 6.5 8.83332H7.5C7.776 8.83332 8 9.05732 8 9.33332C8 9.60932 7.776 9.83332 7.5 9.83332ZM7.5 7.83332H6.5C6.224 7.83332 6 7.60932 6 7.33332C6 7.05732 6.224 6.83332 6.5 6.83332H7.5C7.776 6.83332 8 7.05732 8 7.33332C8 7.60932 7.776 7.83332 7.5 7.83332ZM7.5 5.83332H6.5C6.224 5.83332 6 5.60932 6 5.33332C6 5.05732 6.224 4.83332 6.5 4.83332H7.5C7.776 4.83332 8 5.05732 8 5.33332C8 5.60932 7.776 5.83332 7.5 5.83332ZM7.5 3.83332H6.5C6.224 3.83332 6 3.60932 6 3.33332C6 3.05732 6.224 2.83332 6.5 2.83332H7.5C7.776 2.83332 8 3.05732 8 3.33332C8 3.60932 7.776 3.83332 7.5 3.83332Z" fill="#3385FF"/>
<path d="M15.5807 7.22764L10.834 6.23364V15.9996H15.334C15.9773 15.9996 16.5007 15.4763 16.5007 14.833V8.36764C16.5007 7.81698 16.1253 7.34831 15.5807 7.22764ZM14.0007 13.9996H13.0007C12.7247 13.9996 12.5007 13.7756 12.5007 13.4996C12.5007 13.2236 12.7247 12.9996 13.0007 12.9996H14.0007C14.2767 12.9996 14.5007 13.2236 14.5007 13.4996C14.5007 13.7756 14.2767 13.9996 14.0007 13.9996ZM14.0007 11.9996H13.0007C12.7247 11.9996 12.5007 11.7756 12.5007 11.4996C12.5007 11.2236 12.7247 10.9996 13.0007 10.9996H14.0007C14.2767 10.9996 14.5007 11.2236 14.5007 11.4996C14.5007 11.7756 14.2767 11.9996 14.0007 11.9996ZM14.0007 9.99964H13.0007C12.7247 9.99964 12.5007 9.77564 12.5007 9.49964C12.5007 9.22364 12.7247 8.99964 13.0007 8.99964H14.0007C14.2767 8.99964 14.5007 9.22364 14.5007 9.49964C14.5007 9.77564 14.2767 9.99964 14.0007 9.99964Z" fill="#3385FF"/>
</g>
<defs>
<clipPath id="clip0_1101_22569">
<rect width="16" height="16" fill="white" transform="translate(0.5)"/>
</clipPath>
</defs>
</svg>
