<svg width="15" height="14" viewBox="0 0 15 14" fill="none" xmlns="http://www.w3.org/2000/svg">
<path d="M7.43773 0.0114746C6.05553 0.0114746 4.70438 0.421343 3.55512 1.18925C2.40587 1.95716 1.51013 3.04861 0.98119 4.3256C0.452247 5.60258 0.313851 7.00773 0.583504 8.36337C0.853157 9.71901 1.51875 10.9642 2.49611 11.9416C3.47347 12.919 4.7187 13.5846 6.07434 13.8542C7.42997 14.1239 8.83513 13.9855 10.1121 13.4565C11.3891 12.9276 12.4805 12.0318 13.2485 10.8826C14.0164 9.73333 14.4262 8.38218 14.4262 6.99998C14.4242 5.14714 13.6872 3.37077 12.3771 2.06062C11.0669 0.750463 9.29057 0.0135191 7.43773 0.0114746ZM7.43773 11.046C6.78802 11.0471 6.14759 10.8918 5.5706 10.5931C4.9936 10.2945 4.49702 9.86125 4.12285 9.3301C3.74868 8.79896 3.50792 8.18551 3.42094 7.54165C3.33396 6.89779 3.40331 6.24246 3.62313 5.63107C3.84296 5.01968 4.20678 4.47022 4.68384 4.02916C5.1609 3.58809 5.73716 3.26841 6.36389 3.09713C6.99061 2.92585 7.64937 2.90803 8.28444 3.04515C8.91951 3.18228 9.51222 3.47033 10.0124 3.88495V3.32182C10.0124 3.22427 10.0512 3.13071 10.1202 3.06173C10.1891 2.99276 10.2827 2.954 10.3803 2.954C10.4778 2.954 10.5714 2.99276 10.6403 3.06173C10.7093 3.13071 10.7481 3.22427 10.7481 3.32182V4.79308C10.7481 4.89064 10.7093 4.98419 10.6403 5.05317C10.5714 5.12215 10.4778 5.1609 10.3803 5.1609H8.90899C8.81144 5.1609 8.71789 5.12215 8.64891 5.05317C8.57993 4.98419 8.54118 4.89064 8.54118 4.79308C8.54118 4.69553 8.57993 4.60198 8.64891 4.533C8.71789 4.46402 8.81144 4.42527 8.90899 4.42527H9.51405C9.102 4.09228 8.61605 3.86306 8.09703 3.75685C7.57802 3.65064 7.04109 3.67055 6.53136 3.8149C6.02163 3.95925 5.55399 4.22384 5.16773 4.58642C4.78148 4.94901 4.48788 5.399 4.31162 5.89859C4.13536 6.39818 4.08158 6.93278 4.15479 7.45748C4.22801 7.98217 4.42608 8.48162 4.73237 8.91388C5.03867 9.34614 5.44423 9.69857 5.91499 9.94157C6.38575 10.1846 6.90795 10.311 7.43773 10.3103C7.53528 10.3103 7.62883 10.3491 7.69781 10.4181C7.76679 10.487 7.80554 10.5806 7.80554 10.6781C7.80554 10.7757 7.76679 10.8692 7.69781 10.9382C7.62883 11.0072 7.53528 11.046 7.43773 11.046ZM7.17768 7.26003C7.1087 7.19106 7.06993 7.09752 7.06991 6.99998V4.79308C7.06991 4.69553 7.10866 4.60198 7.17764 4.533C7.24662 4.46402 7.34018 4.42527 7.43773 4.42527C7.53528 4.42527 7.62883 4.46402 7.69781 4.533C7.76679 4.60198 7.80554 4.69553 7.80554 4.79308V6.84771L8.80122 7.84338C8.83635 7.87731 8.86437 7.9179 8.88365 7.96277C8.90293 8.00765 8.91307 8.05591 8.9135 8.10475C8.91392 8.15359 8.90462 8.20202 8.88612 8.24723C8.86763 8.29243 8.84032 8.3335 8.80578 8.36803C8.77125 8.40257 8.73018 8.42988 8.68497 8.44838C8.63977 8.46687 8.59134 8.47618 8.5425 8.47575C8.49366 8.47533 8.4454 8.46518 8.40052 8.4459C8.35565 8.42663 8.31506 8.39861 8.28113 8.36348L7.17768 7.26003ZM8.98623 10.7407C8.9418 10.7584 8.89429 10.7671 8.84646 10.7664C8.77973 10.7668 8.71417 10.7489 8.6568 10.7148C8.59943 10.6808 8.5524 10.6317 8.52077 10.573C8.48914 10.5142 8.47408 10.448 8.47722 10.3813C8.48036 10.3146 8.50157 10.2501 8.53859 10.1946C8.5756 10.1391 8.62703 10.0946 8.68735 10.0661C8.74767 10.0376 8.81462 10.026 8.88102 10.0326C8.94742 10.0392 9.01078 10.0637 9.0643 10.1036C9.11782 10.1434 9.1595 10.1971 9.18485 10.2588C9.2218 10.3491 9.22167 10.4503 9.18449 10.5405C9.14731 10.6307 9.07607 10.7026 8.98623 10.7407ZM10.2993 9.86159C10.2295 9.93 10.1357 9.96831 10.038 9.96831C9.94028 9.96831 9.84646 9.93 9.77667 9.86159C9.72558 9.81001 9.6909 9.74447 9.677 9.67321C9.66309 9.60196 9.67058 9.52819 9.69852 9.46119C9.72647 9.39418 9.77361 9.33695 9.83402 9.29669C9.89443 9.25643 9.96541 9.23494 10.038 9.23494C10.1106 9.23494 10.1816 9.25643 10.242 9.29669C10.3024 9.33695 10.3495 9.39418 10.3775 9.46119C10.4054 9.52819 10.4129 9.60196 10.399 9.67321C10.3851 9.74447 10.3504 9.81001 10.2993 9.86159ZM11.1747 8.54849C11.1475 8.61589 11.1007 8.6736 11.0404 8.71424C10.9801 8.75487 10.9091 8.77656 10.8363 8.77653C10.788 8.77783 10.74 8.76775 10.6962 8.74711C10.6287 8.71959 10.5709 8.67264 10.5301 8.61221C10.4894 8.55179 10.4675 8.48061 10.4672 8.40772C10.467 8.33483 10.4884 8.26351 10.5288 8.20282C10.5692 8.14212 10.6267 8.09479 10.694 8.06683C10.7613 8.03887 10.8354 8.03154 10.9069 8.04577C10.9784 8.06 11.044 8.09515 11.0955 8.14676C11.147 8.19837 11.1819 8.26411 11.196 8.33563C11.21 8.40716 11.2029 8.48124 11.1747 8.54849ZM11.1159 7.3678C11.0431 7.3678 10.972 7.34623 10.9115 7.30581C10.8511 7.26539 10.8039 7.20795 10.7761 7.14074C10.7482 7.07353 10.7409 6.99957 10.7551 6.92822C10.7693 6.85687 10.8044 6.79134 10.8558 6.7399C10.9072 6.68846 10.9728 6.65342 11.0441 6.63923C11.1155 6.62504 11.1894 6.63232 11.2566 6.66016C11.3239 6.688 11.3813 6.73515 11.4217 6.79563C11.4621 6.85612 11.4837 6.92723 11.4837 6.99998C11.4837 7.09753 11.445 7.19109 11.376 7.26007C11.307 7.32905 11.2134 7.3678 11.1159 7.3678Z" fill="#E0BF00"/>
</svg>
