<svg width="80" height="81" viewBox="0 0 80 81" fill="none" xmlns="http://www.w3.org/2000/svg">
<g clip-path="url(#clip0_933_9821)">
<path d="M40 80.5C62.0914 80.5 80 62.5914 80 40.5C80 18.4086 62.0914 0.5 40 0.5C17.9086 0.5 0 18.4086 0 40.5C0 62.5914 17.9086 80.5 40 80.5Z" fill="#31CE9C"/>
<path d="M73.5 18.6875L38.125 55.3125L38.1875 59.25H39.8125L78.125 28.375C77 24.9375 75.4375 21.625 73.5 18.6875Z" fill="#879593"/>
<path d="M79.25 16.9375L72.1875 9.9375C71.25 9 69.6875 9 68.6875 9.9375L38.5 41.125L25.4375 28.25C24.5 27.3125 22.9375 27.3125 21.9375 28.25L15.6875 34.4375C14.75 35.375 14.75 36.9375 15.6875 37.875L36.5625 58.5625C37.125 59.125 37.875 59.3125 38.625 59.25C39.375 59.3125 40.125 59.125 40.6875 58.5625L79.25 20.4375C80.1875 19.4375 80.1875 17.875 79.25 16.9375Z" fill="#F2F1EF"/>
<path d="M40.6875 58.5625L79.25 20.4375C80.1875 19.5 80.1875 17.9375 79.25 17L78.125 15.9375L38.5625 54.8125L16.6875 33.5L15.75 34.4375C14.8125 35.375 14.8125 36.9375 15.75 37.875L36.625 58.5625C37.1875 59.125 37.9375 59.3125 38.6875 59.25C39.375 59.3125 40.125 59.125 40.6875 58.5625Z" fill="#E6E5E3"/>
</g>
<defs>
<clipPath id="clip0_933_9821">
<rect width="80" height="80" fill="white" transform="translate(0 0.5)"/>
</clipPath>
</defs>
</svg>
