<svg width="40" height="40" viewBox="0 0 50 40" fill="none" xmlns="http://www.w3.org/2000/svg">
<path fill-rule="evenodd" clip-rule="evenodd" d="M15.544 21.519C21.4645 21.519 26.2931 16.6903 26.2931 10.7699C26.2931 4.84952 21.4646 0.020752 15.544 0.020752C9.62361 0.0208339 4.79492 4.84952 4.79492 10.77C4.79492 16.6903 9.62361 21.519 15.544 21.519Z" fill="#31CE9C"/>
<path fill-rule="evenodd" clip-rule="evenodd" d="M19.7122 6.23263C20.2274 5.71738 21.0628 5.71738 21.5781 6.23263C22.0934 6.74787 22.0934 7.58336 21.5781 8.09861L14.3693 15.3073C13.8542 15.8225 13.0188 15.8225 12.5034 15.3073C12.4472 15.2511 12.3973 15.1912 12.3534 15.1283L9.41113 11.4256C8.95859 10.8562 9.05301 10.0277 9.62244 9.57508C10.1919 9.12246 11.0202 9.21705 11.4729 9.7864L13.5476 12.3972L19.7122 6.23263Z" fill="#EFF4F7"/>
<g filter="url(#filter0_d_1152_11225)">
<path fill-rule="evenodd" clip-rule="evenodd" d="M24.9998 24.212C32.452 24.212 38.4932 30.2532 38.4932 37.7054H45.2048C45.2048 26.5465 36.1588 17.5005 24.9998 17.5005C13.8409 17.5005 4.79492 26.5465 4.79492 37.7054H11.5065C11.5065 30.2532 17.5477 24.212 24.9998 24.212Z" fill="#F5F9FF"/>
<path fill-rule="evenodd" clip-rule="evenodd" d="M13.2429 21.2721C10.9081 22.9456 8.94459 25.1044 7.5 27.6011L13.3133 30.9574C14.498 28.9098 16.2055 27.2024 18.2531 26.0177L15.6555 21.5184L14.8968 20.2043C14.3273 20.5339 13.7755 20.8902 13.2429 21.2721Z" fill="#EBF3FF"/>
<path fill-rule="evenodd" clip-rule="evenodd" d="M15.6553 21.5185L18.2529 26.0178C20.2377 24.8693 22.5424 24.212 25.0006 24.212V17.5005C24.6322 17.5005 24.2662 17.5103 23.9028 17.5298C20.6339 17.7048 17.5713 18.6568 14.8965 20.2044L15.6553 21.5185Z" fill="#ADCEFF"/>
<path fill-rule="evenodd" clip-rule="evenodd" d="M25 17.5005V24.212C27.4582 24.212 29.7629 24.8693 31.7477 26.0178L35.104 20.2044C32.132 18.4847 28.6808 17.5005 25 17.5005Z" fill="#3385FF"/>
<path fill-rule="evenodd" clip-rule="evenodd" d="M35.1044 20.2043L31.748 26.0177C33.7956 27.2025 35.5032 28.9098 36.6879 30.9574L42.5012 27.6011C40.7271 24.535 38.1704 21.9784 35.1044 20.2043Z" fill="#005AE0"/>
<path fill-rule="evenodd" clip-rule="evenodd" d="M42.5008 27.6011L36.6875 30.9573C37.836 32.9423 38.4933 35.2471 38.4933 37.7053H45.2049C45.2049 34.0244 44.2205 30.5734 42.5008 27.6011Z" fill="#002A68"/>
<path fill-rule="evenodd" clip-rule="evenodd" d="M29.5481 31.6441C29.9661 31.2261 30.644 31.2261 31.0621 31.6441C31.4801 32.0622 31.4801 32.74 31.0621 33.1581C29.3068 34.9134 27.5516 36.6687 25.7963 38.4239C25.3781 38.842 24.7003 38.842 24.2822 38.4239C23.8643 38.0058 23.8643 37.3279 24.2822 36.9099C26.0375 35.1547 27.7928 33.3994 29.5481 31.6441Z" fill="#31CE9C"/>
<path fill-rule="evenodd" clip-rule="evenodd" d="M25.0003 39.979C26.2527 39.979 27.2741 38.9576 27.2741 37.7053C27.2741 36.453 26.2527 35.4316 25.0003 35.4316C23.748 35.4316 22.7266 36.453 22.7266 37.7053C22.7266 38.9576 23.748 39.979 25.0003 39.979Z" fill="#10835E"/>
</g>
<defs>
<filter id="filter0_d_1152_11225" x="0.794922" y="14.5005" width="48.4102" height="30.4785" filterUnits="userSpaceOnUse" color-interpolation-filters="sRGB">
<feFlood flood-opacity="0" result="BackgroundImageFix"/>
<feColorMatrix in="SourceAlpha" type="matrix" values="0 0 0 0 0 0 0 0 0 0 0 0 0 0 0 0 0 0 127 0" result="hardAlpha"/>
<feOffset dy="1"/>
<feGaussianBlur stdDeviation="2"/>
<feComposite in2="hardAlpha" operator="out"/>
<feColorMatrix type="matrix" values="0 0 0 0 0.436192 0 0 0 0 0.641846 0 0 0 0 0.576037 0 0 0 0.6 0"/>
<feBlend mode="normal" in2="BackgroundImageFix" result="effect1_dropShadow_1152_11225"/>
<feBlend mode="normal" in="SourceGraphic" in2="effect1_dropShadow_1152_11225" result="shape"/>
</filter>
</defs>
</svg>
