<svg width="74" height="73" viewBox="0 0 74 73" fill="none" xmlns="http://www.w3.org/2000/svg">
<path d="M37 72.75C57.0203 72.75 73.25 56.5203 73.25 36.5C73.25 16.4797 57.0203 0.25 37 0.25C16.9797 0.25 0.75 16.4797 0.75 36.5C0.75 56.5203 16.9797 72.75 37 72.75Z" fill="#FFC048"/>
<path fill-rule="evenodd" clip-rule="evenodd" d="M37 20.5625C40.4307 20.562 43.7846 21.5789 46.6373 23.4846C49.4901 25.3903 51.7136 28.0992 53.0267 31.2687C54.3398 34.4382 54.6835 37.9259 54.0144 41.2907C53.3452 44.6556 51.6932 47.7464 49.2673 50.1723C46.8414 52.5982 43.7506 54.2502 40.3857 54.9193C37.0209 55.5885 33.5332 55.2448 30.3637 53.9317C27.1942 52.6186 24.4853 50.3951 22.5796 47.5423C20.6739 44.6896 19.657 41.3357 19.6575 37.905C19.6602 33.3063 21.4882 28.8967 24.7399 25.6449C27.9917 22.3932 32.4013 20.5651 37 20.5625ZM37 18.0625C33.0749 18.0625 29.238 19.2265 25.9745 21.4072C22.7109 23.5879 20.1673 26.6874 18.6654 30.3137C17.1634 33.9401 16.7706 37.9304 17.5365 41.78C18.3024 45.6296 20.1927 49.1656 22.9684 51.9409C25.744 54.7162 29.2803 56.606 33.13 57.3715C36.9797 58.1369 40.9699 57.7436 44.5961 56.2412C48.2223 54.7388 51.3214 52.1948 53.5017 48.931C55.682 45.6672 56.8455 41.8301 56.845 37.905C56.8424 32.6428 54.7506 27.597 51.0295 23.8763C47.3083 20.1556 42.2622 18.0645 37 18.0625Z" fill="white"/>
<path fill-rule="evenodd" clip-rule="evenodd" d="M35.75 28.6104V36.6554H27.7025C27.371 36.6554 27.0531 36.787 26.8186 37.0215C26.5842 37.2559 26.4525 37.5738 26.4525 37.9054C26.4525 38.2369 26.5842 38.5548 26.8186 38.7892C27.0531 39.0237 27.371 39.1554 27.7025 39.1554H37C37.3315 39.1554 37.6495 39.0237 37.8839 38.7892C38.1183 38.5548 38.25 38.2369 38.25 37.9054V28.6104C38.25 28.2788 38.1183 27.9609 37.8839 27.7265C37.6495 27.492 37.3315 27.3604 37 27.3604C36.6685 27.3604 36.3506 27.492 36.1161 27.7265C35.8817 27.9609 35.75 28.2788 35.75 28.6104Z" fill="white"/>
<path fill-rule="evenodd" clip-rule="evenodd" d="M31.6875 15.25H42.3125C42.644 15.25 42.962 15.1183 43.1964 14.8839C43.4308 14.6495 43.5625 14.3315 43.5625 14C43.5625 13.6685 43.4308 13.3505 43.1964 13.1161C42.962 12.8817 42.644 12.75 42.3125 12.75H31.6875C31.356 12.75 31.038 12.8817 30.8036 13.1161C30.5692 13.3505 30.4375 13.6685 30.4375 14C30.4375 14.3315 30.5692 14.6495 30.8036 14.8839C31.038 15.1183 31.356 15.25 31.6875 15.25Z" fill="white"/>
</svg>
