<svg width="40" height="40" viewBox="0 0 50 40" fill="none" xmlns="http://www.w3.org/2000/svg">
<g filter="url(#filter0_d_1152_11247)">
<ellipse cx="25.5" cy="18.875" rx="20" ry="18.125" fill="white"/>
</g>
<path fill-rule="evenodd" clip-rule="evenodd" d="M9.22415 36.8714C11.0825 37.0768 15.1013 34.6759 16.751 33.875C23.9144 37.8344 29.9729 36.0003 36.7509 31.6626C37.0138 31.2682 37.5707 25.051 39.8759 28.875C41.2307 26.3483 43.0013 28.576 43.0013 23.7053V20.174C43.0013 15.3032 42.2859 12.4569 40.9312 9.93018C39.5918 7.40349 37.5978 5.42474 35.0711 4.07006C32.5444 2.71539 29.6981 2 24.8274 2H21.2809C17.1325 2 17.3181 6.62806 15.0555 7.625C14.9318 7.73575 14.1889 14.9481 12.3759 8.875C5.73774 15.2742 4.67021 24.1274 10.2992 31.6626C10.3055 31.6737 10.3124 31.6849 10.3201 31.6962C11.1877 32.9748 10.3505 35.2123 9.04149 36.5213C8.8284 36.7192 8.9045 36.841 9.22415 36.8714Z" fill="white"/>
<path d="M19.7423 14.5H11.9623V16.1682H17.3613L12.0381 22.7654C11.8713 23.008 11.75 23.2355 11.75 23.7511V24.1758H19.0902C19.4542 24.1758 19.7575 23.8725 19.7575 23.5085V22.6137H14.0855L19.0902 16.335C19.166 16.2441 19.3025 16.0773 19.3632 16.0014L19.3935 15.9559C19.6817 15.5313 19.7423 15.1673 19.7423 14.7275V14.5Z" fill="#3385FF"/>
<path d="M29.6451 24.1758H30.7522V14.5H29.084V23.6146C29.084 23.918 29.3266 24.1758 29.6451 24.1758Z" fill="#3385FF"/>
<path d="M23.9418 16.6538C21.849 16.6538 20.1504 18.3524 20.1504 20.4452C20.1504 22.5381 21.849 24.2367 23.9418 24.2367C26.0347 24.2367 27.7333 22.5381 27.7333 20.4452C27.7485 18.3524 26.0499 16.6538 23.9418 16.6538ZM23.9418 22.6746C22.7134 22.6746 21.7125 21.6736 21.7125 20.4452C21.7125 19.2168 22.7134 18.2159 23.9418 18.2159C25.1702 18.2159 26.1712 19.2168 26.1712 20.4452C26.1712 21.6736 25.1854 22.6746 23.9418 22.6746Z" fill="#3385FF"/>
<path d="M35.6811 16.5928C33.5731 16.5928 31.8594 18.3065 31.8594 20.4145C31.8594 22.5226 33.5731 24.2364 35.6811 24.2364C37.7891 24.2364 39.5029 22.5226 39.5029 20.4145C39.5029 18.3065 37.7891 16.5928 35.6811 16.5928ZM35.6811 22.6743C34.4375 22.6743 33.4366 21.6733 33.4366 20.4297C33.4366 19.1861 34.4375 18.1852 35.6811 18.1852C36.9247 18.1852 37.9257 19.1861 37.9257 20.4297C37.9257 21.6733 36.9247 22.6743 35.6811 22.6743Z" fill="#3385FF"/>
<path d="M26.8548 24.1756H27.7496V16.8657H26.1875V23.5236C26.1875 23.8724 26.4908 24.1756 26.8548 24.1756Z" fill="#3385FF"/>
<defs>
<filter id="filter0_d_1152_11247" x="0.5" y="0.75" width="50" height="46.25" filterUnits="userSpaceOnUse" color-interpolation-filters="sRGB">
<feFlood flood-opacity="0" result="BackgroundImageFix"/>
<feColorMatrix in="SourceAlpha" type="matrix" values="0 0 0 0 0 0 0 0 0 0 0 0 0 0 0 0 0 0 127 0" result="hardAlpha"/>
<feOffset dy="5"/>
<feGaussianBlur stdDeviation="2.5"/>
<feComposite in2="hardAlpha" operator="out"/>
<feColorMatrix type="matrix" values="0 0 0 0 0 0 0 0 0 0 0 0 0 0 0 0 0 0 0.25 0"/>
<feBlend mode="normal" in2="BackgroundImageFix" result="effect1_dropShadow_1152_11247"/>
<feBlend mode="normal" in="SourceGraphic" in2="effect1_dropShadow_1152_11247" result="shape"/>
</filter>
</defs>
</svg>
